<svg id="Layer_2" data-name="Layer 2" xmlns="http://www.w3.org/2000/svg" viewBox="0 0 289.95 303.09"><defs><style>.cls-1{fill:#070700;}</style></defs><title>Logo</title><path class="cls-1" d="M242.45,188.6a112.88,112.88,0,0,1-8.34,41.9,113,113,0,0,1-23.38,35.87A109.54,109.54,0,0,1,133,299.89,111.92,111.92,0,0,1,29.19,231.58,112.75,112.75,0,0,1,89.43,83.52a111.23,111.23,0,0,1,21.35-6.42,109.76,109.76,0,0,1,44.27.43,109.28,109.28,0,0,1,21.07,6.87,111.29,111.29,0,0,1,35.64,25.4,114.07,114.07,0,0,1,28.83,57.39A111.47,111.47,0,0,1,242.45,188.6Zm-.9,0a110.28,110.28,0,0,0-2.33-21.14,103.66,103.66,0,0,0-30.86-54.26A108.28,108.28,0,0,0,59,114.65,105,105,0,0,0,35.22,229.08,106.3,106.3,0,0,0,133,295.39,108.35,108.35,0,0,0,209.39,265a107.25,107.25,0,0,0,13.7-16.21,104.65,104.65,0,0,0,16.44-39A110.11,110.11,0,0,0,241.55,188.6Z"/><path class="cls-1" d="M29.87,152.21,11,104l-.18-.45.28-.42,35.61-53,.48-.72h.9L97.19,49l-1.87,1.14L114.4,12.87l.67-1.31,1.52,0,52.16-.46h1.1l.87.77,27.86,24.7.54.48.31.74c4.47,10.57,8.8,21.19,13.19,31.79l-5.76-1.34c2.56-2.33,5.16-4.62,7.75-6.91l7.77-6.88,1.82-1.61,2.14,1c6.58,3.22,13.18,6.39,19.74,9.66l19.71,9.74,1.12.55.42,1.08,9.86,25.2.53,1.36-.77,1.09-9.71,13.72-9.79,13.67-9.89,13.61-4.95,6.79-5,6.76-.58-.39,4.35-7.2,4.42-7.16,8.85-14.3,8.95-14.23,9-14.18-.24,2.45L261.54,77.29l1.54,1.63-19.95-9.23c-6.66-3.06-13.27-6.21-19.91-9.31l4-.56-7.74,6.92c-2.59,2.3-5.16,4.61-7.77,6.88L207.78,77l-1.87-4.74c-4.23-10.66-8.52-21.3-12.68-32l.86,1.23L166.77,16.2l2,.76-52.16-.47,2.19-1.33L99.07,52.07l-.61,1.14H97.19l-49.13-.44L49.43,52l-36.8,52.18.1-.87L30.52,152Z"/><path class="cls-1" d="M91,63c.14-1.18.38-2.32.6-3.46L92,57.89l.45-1.66c.15-.55.22-1.14.32-1.72A3.13,3.13,0,0,1,93.46,53a5.74,5.74,0,0,1,1.41-1.18A6.3,6.3,0,0,1,97,51l.45.23a6.19,6.19,0,0,1,.6,2.18,5.79,5.79,0,0,1-.08,1.83,3.1,3.1,0,0,1-.78,1.5c-.4.43-.82.84-1.17,1.3l-1,1.36-1.12,1.32c-.77.87-1.54,1.75-2.39,2.58Z"/><path class="cls-1" d="M213.81,83c-.83-.69-1.58-1.43-2.34-2.16l-1.09-1.12-1-1.16a14.91,14.91,0,0,0-1.15-1.09,2.52,2.52,0,0,1-.75-1.31,4.86,4.86,0,0,1-.08-1.68,5.68,5.68,0,0,1,.59-2l.43-.24a5.74,5.74,0,0,1,2,.59,4.64,4.64,0,0,1,1.38,1,2.44,2.44,0,0,1,.71,1.33,14.64,14.64,0,0,0,.32,1.55l.43,1.49.37,1.52c.22,1,.45,2,.59,3.13Z"/><path d="M55.64,214A35.07,35.07,0,0,0,79.57,224c10.07,0,18.23-6.13,18.23-15.78,0-9.11-4.49-14.69-20-18.9-13.88-3.81-21.49-12.24-21.49-23.4s9.65-20.4,24.61-20.4a36.43,36.43,0,0,1,20.4,6.8l-1.63,6.39c-5.44-3.8-12.92-6.52-18.77-6.52-10.6,0-17,5.71-17,13.73,0,6.67,3.81,12.51,17,16,15.92,4.22,24.49,12.11,24.49,25.3,0,15.5-13.2,23.39-25.85,23.39-11.83,0-20.94-4.76-25.43-9.11Z"/><path d="M118.47,147.24l22,67.46L162,147.24h5.17l21.35,67.46,21.76-67.46h7.48l-26.93,81.6h-5.17L164.3,161.93l-21.62,66.91h-5.17l-26.93-81.6Z"/></svg>
