<svg id="Layer_1" data-name="Layer 1" xmlns="http://www.w3.org/2000/svg" viewBox="0 0 968.11 260.09">
  <defs>
    <style>
      .cls-1 {
        fill: #020200;
      }
    </style>
  </defs>
  <title>logo</title>
  <g>
    <path class="cls-1" d="M38.73,235.39l166.32-6.57-1.82,1.81L203.8,197l0-1.14,1-.63,63-39.12,63.07-39-1.24,1.41L349.38,74l.44-1,1-.58,97.43-58,1-.6,1.23,0,69.86,1.27,1.86,0,1.35,1.36,52.9,53.22,26.45,26.62,26.37,26.69-8.07,0c5.79-5.8,11.55-11.63,17.38-17.39L656,88.36l3.55-3.52,4,3,31.87,24.29,31.76,24.43,31.72,24.48,31.66,24.57,1.35,1,.25,1.56,6,37.65L794.67,223l29.72,1.32c9.91.45,19.82.89,29.72,1.42l29.71,1.51c9.91.48,19.81,1.07,29.71,1.64l0,1.09c-9.92.09-19.84.19-29.76.18l-29.75.06c-9.92,0-19.84,0-29.75-.05L794.5,230l-2.85,0-.56-2.89-7.27-37.43,1.6,2.6-32.31-23.73-32.23-23.82-32.19-23.87-32.1-24,7.51-.5-17.42,17.34c-5.79,5.79-11.66,11.51-17.49,17.27l-4.09,4-4-4.1L595,104,569,77l-52.08-54,3.21,1.39-69.84-2.16,2.24-.57L354.36,78.42l1.4-1.57L335.49,121.1l-.41.9-.83.5-63.54,38.25-63.62,38.12,1-1.76L207,230.73l-.05,1.77-1.77,0-166.4,3.94Z"/>
    <path class="cls-1" d="M646.15,159.31c-2.42-2.32-4.74-4.73-7-7.16l-3.39-3.7-3.29-3.8c-1.09-1.27-2.24-2.5-3.38-3.75a21,21,0,0,1-2.88-4.11,32.34,32.34,0,0,1-2.06-4.69,19.51,19.51,0,0,1-1.09-5.24l.53-.29a34.87,34.87,0,0,1,7.58,6.85,23.22,23.22,0,0,1,2.78,4.07c.78,1.45,1.54,2.94,2.41,4.35l2.6,4.23,2.58,4.26c1.71,2.86,3.45,5.7,5.12,8.61Z"/>
    <path class="cls-1" d="M348.45,155.82c-2.21-2.47-4.31-5-6.41-7.59l-3.07-3.9-3-4c-1-1.34-2-2.63-3.06-3.94a21.21,21.21,0,0,1-2.54-4.27,32.07,32.07,0,0,1-1.68-4.77,19.47,19.47,0,0,1-.7-5.25l.55-.26a34,34,0,0,1,7,7.28,22.71,22.71,0,0,1,2.44,4.22c.67,1.5,1.3,3,2.05,4.47l2.25,4.37,2.22,4.41c1.46,2.95,3,5.88,4.38,8.88Z"/>
    <g>
      <path d="M254.38,228a26.4,26.4,0,0,0,17.5,6.86c7.36,0,13.33-4.23,13.33-10.9,0-6.29-3.28-10.14-14.62-13.05-10.14-2.63-15.71-8.45-15.71-16.15s7.06-14.09,18-14.09a27.67,27.67,0,0,1,14.91,4.7l-1.19,4.41a27.3,27.3,0,0,0-13.72-4.5c-7.76,0-12.43,3.94-12.43,9.48,0,4.6,2.78,8.64,12.43,11.08,11.63,2.91,17.89,8.36,17.89,17.47,0,10.7-9.64,16.15-18.89,16.15-8.65,0-15.31-3.29-18.59-6.29Z"/>
      <path d="M330.05,238.28l-.3-5.83c-2.69,4.89-8.75,7.05-13.72,7.05-9.65,0-16.9-7.33-16.9-17.28S306.38,205,316,205c4.87,0,11,2.06,13.72,7l.3-5.82h4.37v32ZM304.2,222.22c0,8.36,5.86,13.24,12.72,13.24,6.66,0,12.73-4.79,12.73-13.24s-6.07-13.15-12.73-13.15C310.06,209.07,304.2,213.86,304.2,222.22Z"/>
      <path d="M352.22,219.21v19.07h-5.07v-32h4.47l.3,5.82a17.17,17.17,0,0,1,13.23-7v5.25C358.88,209.35,352.22,213.58,352.22,219.21Z"/>
      <path d="M402,238.28l-.3-5.83c-2.68,4.89-8.74,7.05-13.72,7.05-9.64,0-16.9-7.33-16.9-17.28S378.37,205,388,205c4.88,0,11,2.06,13.72,7l.3-5.82h4.38v32Zm-25.85-16.06c0,8.36,5.87,13.24,12.73,13.24,6.66,0,12.73-4.79,12.73-13.24s-6.07-13.15-12.73-13.15C382.05,209.07,376.18,213.86,376.18,222.22Z"/>
      <path d="M445.19,238.28v-18.5c0-7.7-3.39-10.43-9.05-10.43-5.87,0-11.93,5.36-11.93,11v17.94h-5.07V181.93h5.07v30.15c2.38-4,7.65-7,13.32-7,8.65,0,12.73,5.25,12.73,14.17v19.07Z"/>
      <path d="M481.28,181.93l16.1,46.58,15.71-46.58h3.78l15.61,46.58,15.91-46.58h5.47l-19.69,56.35h-3.78l-15.61-46.2L499,238.28H495.2l-19.69-56.35Z"/>
      <path d="M562,195.36v-5.73h5.07v5.73Zm0,42.92v-32h5.07v32Z"/>
      <path d="M605.86,238.28v-18.5c0-7.7-3.38-10.43-9.05-10.43-5.87,0-11.93,5.36-11.93,11v17.94h-5.07v-32h4.47l.3,6c2.39-4,7.95-7.23,13.62-7.23,8.65,0,12.73,5.25,12.73,14.17v19.07Z"/>
      <path d="M632.7,210v28.27h-5.07V210h-7.46v-3.75h7.46v-10.8h5.07v10.8h7.46V210Z"/>
      <path d="M675.55,238.28v-18.5c0-7.7-3.38-10.43-9-10.43-5.86,0-11.93,5.36-11.93,11v17.94H649.5V181.93h5.07v30.15c2.39-4,7.66-7,13.33-7,8.65,0,12.72,5.25,12.72,14.17v19.07Z"/>
      <path d="M721.49,220.9H696.43c-.59,6.67,2.69,14.47,13.92,14.47a18.87,18.87,0,0,0,11-4v4c-2.79,2.44-7.36,4-13.13,4-9.94,0-17-7.51-17-17.46,0-10.43,8-16.9,16.31-16.9s14.32,5.25,14.32,12.48A20.43,20.43,0,0,1,721.49,220.9Zm-13.82-12c-5,0-9.65,2.73-10.94,8.55h20.18C717.41,212.55,713.73,208.88,707.67,208.88Z"/>
      <path d="M738.09,219.21v19.07H733v-32h4.48l.29,5.82A17.17,17.17,0,0,1,751,205v5.25C744.75,209.35,738.09,213.58,738.09,219.21Z"/>
    </g>
  </g>
</svg>
